<?xml version="1.0" encoding="UTF-8" standalone="no"?>
<!-- Generator: Adobe Illustrator 16.0.0, SVG Export Plug-In . SVG Version: 6.00 Build 0)  -->

<svg
   xmlns:dc="http://purl.org/dc/elements/1.1/"
   xmlns:cc="http://creativecommons.org/ns#"
   xmlns:rdf="http://www.w3.org/1999/02/22-rdf-syntax-ns#"
   xmlns:svg="http://www.w3.org/2000/svg"
   xmlns="http://www.w3.org/2000/svg"
   xmlns:sodipodi="http://sodipodi.sourceforge.net/DTD/sodipodi-0.dtd"
   xmlns:inkscape="http://www.inkscape.org/namespaces/inkscape"
   version="1.1"
   id="Layer_1"
   x="0px"
   y="0px"
   width="906.137px"
   height="906.197px"
   viewBox="0 0 906.137 906.197"
   enable-background="new 0 0 906.137 906.197"
   xml:space="preserve"
   inkscape:version="0.91 r13725"
   sodipodi:docname="close.svg"><metadata
     id="metadata9"><rdf:RDF><cc:Work
         rdf:about=""><dc:format>image/svg+xml</dc:format><dc:type
           rdf:resource="http://purl.org/dc/dcmitype/StillImage" /></cc:Work></rdf:RDF></metadata><defs
     id="defs7" /><sodipodi:namedview
     pagecolor="#ffffff"
     bordercolor="#666666"
     borderopacity="1"
     objecttolerance="10"
     gridtolerance="10"
     guidetolerance="10"
     inkscape:pageopacity="0"
     inkscape:pageshadow="2"
     inkscape:window-width="1920"
     inkscape:window-height="1176"
     id="namedview5"
     showgrid="false"
     inkscape:zoom="0.7366045"
     inkscape:cx="161.75325"
     inkscape:cy="750.63924"
     inkscape:window-x="1440"
     inkscape:window-y="903"
     inkscape:window-maximized="1"
     inkscape:current-layer="Layer_1" /><path
     d="m 668.49026,632.98226 -35.495,35.613 c -7.177,7.116 -17.073,11.0525 -27.0255,11.052 -9.8955,5e-4 -19.8475,-3.9355 -26.966,-11.0525 l -125.938,-125.936 -125.9365,125.9365 c -7.1175,7.1165 -17.07,11.0525 -26.9655,11.0525 -9.9525,0 -19.8475,-3.9365 -27.025,-11.053 l -35.4935,-35.6125 c -7.177,-7.117 -11.1105,-17.0125 -11.1105,-26.9665 0,-9.954 3.9335,-19.8495 11.1105,-26.9675 l 125.879,-125.9355 -125.8795,-125.9085 c -7.1775,-7.147 -11.1105,-17.0725 -11.1105,-26.995 0,-9.926 3.933,-19.8505 11.1105,-26.9955 l 35.4935,-35.5535 c 7.1775,-7.1475 17.073,-11.111 27.025,-11.111 9.8955,0 19.848,3.963 26.9655,11.111 l 125.937,125.9065 125.939,-125.9065 c 7.1175,-7.1475 17.0705,-11.111 26.966,-11.111 9.952,0 19.8475,3.963 27.0255,11.111 l 35.495,35.5535 c 7.1775,7.145 11.1115,17.07 11.1115,26.9955 -10e-4,9.9225 -3.9335,19.8475 -11.1115,26.995 l -125.879,125.909 125.879,125.9355 c 7.177,7.117 11.1105,17.012 11.1105,26.969 -10e-4,9.9515 -3.9335,19.847 -11.1115,26.9645 z"
     id="path3"
     style="fill:#ffffff"
     inkscape:connector-curvature="0" /></svg>