<?xml version="1.0" encoding="UTF-8" standalone="no"?>
<!-- Created with Inkscape (http://www.inkscape.org/) -->

<svg
   xmlns:dc="http://purl.org/dc/elements/1.1/"
   xmlns:cc="http://creativecommons.org/ns#"
   xmlns:rdf="http://www.w3.org/1999/02/22-rdf-syntax-ns#"
   xmlns:svg="http://www.w3.org/2000/svg"
   xmlns="http://www.w3.org/2000/svg"
   xmlns:sodipodi="http://sodipodi.sourceforge.net/DTD/sodipodi-0.dtd"
   xmlns:inkscape="http://www.inkscape.org/namespaces/inkscape"
   width="9.0377254mm"
   height="9.0377264mm"
   viewBox="0 0 32.023437 32.02344"
   id="svg2"
   version="1.1"
   inkscape:version="0.91 r13725"
   sodipodi:docname="glider.svg"
   inkscape:export-filename="/home/gil/ros-ws/mobile/src/glider_kayak_sim/web/ico/kayak.png"
   inkscape:export-xdpi="87.954666"
   inkscape:export-ydpi="87.954666">
  <defs
     id="defs4" />
  <sodipodi:namedview
     id="base"
     pagecolor="#ffffff"
     bordercolor="#666666"
     borderopacity="1.0"
     inkscape:pageopacity="0.0"
     inkscape:pageshadow="2"
     inkscape:zoom="7.6783566"
     inkscape:cx="-1.0337161"
     inkscape:cy="22.32385"
     inkscape:document-units="px"
     inkscape:current-layer="layer1"
     showgrid="false"
     inkscape:window-width="1440"
     inkscape:window-height="1209"
     inkscape:window-x="0"
     inkscape:window-y="24"
     inkscape:window-maximized="0"
     inkscape:snap-center="true"
     inkscape:snap-others="true"
     inkscape:snap-midpoints="true"
     fit-margin-top="0"
     fit-margin-left="0"
     fit-margin-right="0"
     fit-margin-bottom="0" />
  <metadata
     id="metadata7">
    <rdf:RDF>
      <cc:Work
         rdf:about="">
        <dc:format>image/svg+xml</dc:format>
        <dc:type
           rdf:resource="http://purl.org/dc/dcmitype/StillImage" />
        <dc:title></dc:title>
      </cc:Work>
    </rdf:RDF>
  </metadata>
  <g
     inkscape:label="Layer 1"
     inkscape:groupmode="layer"
     id="layer1"
     transform="translate(-64.761719,-329.24414)">
    <ellipse
       style="fill:#ffffff;fill-opacity:1;fill-rule:evenodd;stroke:none;stroke-width:2;stroke-linecap:butt;stroke-linejoin:miter;stroke-miterlimit:4;stroke-dasharray:none;stroke-opacity:1"
       id="path3336-3"
       cx="80.773438"
       cy="345.25586"
       rx="15.511131"
       ry="15.511132" />
    <path
       style="fill:#ffff00;fill-opacity:1;fill-rule:evenodd;stroke:#000000;stroke-width:1;stroke-linecap:butt;stroke-linejoin:miter;stroke-miterlimit:4;stroke-dasharray:none;stroke-opacity:1"
       d="m 80.773438,329.74414 a 15.511131,15.511132 0 0 0 -15.511719,15.51172 15.511131,15.511132 0 0 0 15.511719,15.51172 15.511131,15.511132 0 0 0 15.511718,-15.51172 15.511131,15.511132 0 0 0 -15.511718,-15.51172 z m 3.71875,6.57813 4.976562,0 -4.623047,6.65429 5.792969,0 c 1.262641,0 2.279297,1.01471 2.279297,2.27735 0,1.26264 -1.016656,2.28125 -2.279297,2.28125 l -5.792969,0 4.623047,6.65429 -4.976562,0 -4.623047,-6.65429 -8.960938,0 c -1.26264,0 -2.279297,-1.01861 -2.279297,-2.28125 0,-1.26264 1.016657,-2.27735 2.279297,-2.27735 l 8.960938,0 4.623047,-6.65429 z"
       id="ellipse4135"
       inkscape:connector-curvature="0" />
  </g>
</svg>
