<?xml version="1.0" encoding="UTF-8" standalone="no"?>
<!-- Created with Inkscape (http://www.inkscape.org/) -->

<svg
   xmlns:dc="http://purl.org/dc/elements/1.1/"
   xmlns:cc="http://creativecommons.org/ns#"
   xmlns:rdf="http://www.w3.org/1999/02/22-rdf-syntax-ns#"
   xmlns:svg="http://www.w3.org/2000/svg"
   xmlns="http://www.w3.org/2000/svg"
   xmlns:sodipodi="http://sodipodi.sourceforge.net/DTD/sodipodi-0.dtd"
   xmlns:inkscape="http://www.inkscape.org/namespaces/inkscape"
   width="9.0311117mm"
   height="9.0311098mm"
   viewBox="0 0 32.000002 31.999995"
   id="svg2"
   version="1.1"
   inkscape:version="0.91 r13725"
   sodipodi:docname="kayak.svg"
   inkscape:export-filename="/home/gil/ros-ws/mobile/src/glider_kayak_sim/web/ico/kayak.png"
   inkscape:export-xdpi="87.954666"
   inkscape:export-ydpi="87.954666">
  <defs
     id="defs4" />
  <sodipodi:namedview
     id="base"
     pagecolor="#ffffff"
     bordercolor="#666666"
     borderopacity="1.0"
     inkscape:pageopacity="0.0"
     inkscape:pageshadow="2"
     inkscape:zoom="10.858836"
     inkscape:cx="17.22121"
     inkscape:cy="4.027948"
     inkscape:document-units="px"
     inkscape:current-layer="layer1"
     showgrid="false"
     inkscape:window-width="1440"
     inkscape:window-height="1209"
     inkscape:window-x="0"
     inkscape:window-y="24"
     inkscape:window-maximized="0"
     inkscape:snap-center="true"
     fit-margin-top="0"
     fit-margin-left="0"
     fit-margin-right="0"
     fit-margin-bottom="0" />
  <metadata
     id="metadata7">
    <rdf:RDF>
      <cc:Work
         rdf:about="">
        <dc:format>image/svg+xml</dc:format>
        <dc:type
           rdf:resource="http://purl.org/dc/dcmitype/StillImage" />
        <dc:title></dc:title>
      </cc:Work>
    </rdf:RDF>
  </metadata>
  <g
     inkscape:label="Layer 1"
     inkscape:groupmode="layer"
     id="layer1"
     transform="translate(-64.773438,-329.25586)">
    <ellipse
       style="fill:#ffffff;fill-opacity:1;fill-rule:evenodd;stroke:none;stroke-width:2;stroke-linecap:butt;stroke-linejoin:miter;stroke-miterlimit:4;stroke-dasharray:none;stroke-opacity:1"
       id="path3336-3"
       cx="80.773438"
       cy="345.25586"
       rx="15.511131"
       ry="15.511132" />
    <path
       style="fill:#ff6600;fill-rule:evenodd;stroke:#000000;stroke-width:0.97727412;stroke-linecap:butt;stroke-linejoin:miter;stroke-miterlimit:4;stroke-dasharray:none;stroke-opacity:1"
       d="M 80.773438,329.7445 A 15.511131,15.511132 0 0 0 65.262075,345.25586 15.511131,15.511132 0 0 0 80.773438,360.76722 15.511131,15.511132 0 0 0 96.284802,345.25586 15.511131,15.511132 0 0 0 80.773438,329.7445 Z m -2.230361,10.53719 11.299729,0 0,4.13909 c 1.360478,-0.39759 2.229304,-0.71734 2.574893,-0.38747 0.95982,0.9162 -1.440145,6.10797 -1.440145,6.10797 0,0 -13.394163,0.47977 -17.451596,-0.78545 -4.057433,-1.26523 -4.623919,-8.115 -4.623919,-8.115 0,0 -0.08753,-0.0871 8.812645,2.92323 0.280154,0.0948 0.556276,0.18323 0.828393,0.26436 l 0,-4.14673 z"
       id="path3336"
       inkscape:connector-curvature="0" />
  </g>
</svg>
