<?xml version="1.0" encoding="UTF-8" standalone="no"?>
<!-- Generator: Adobe Illustrator 18.1.1, SVG Export Plug-In . SVG Version: 6.00 Build 0)  -->

<svg
   xmlns:sketch="http://www.bohemiancoding.com/sketch/ns"
   xmlns:dc="http://purl.org/dc/elements/1.1/"
   xmlns:cc="http://creativecommons.org/ns#"
   xmlns:rdf="http://www.w3.org/1999/02/22-rdf-syntax-ns#"
   xmlns:svg="http://www.w3.org/2000/svg"
   xmlns="http://www.w3.org/2000/svg"
   xmlns:xlink="http://www.w3.org/1999/xlink"
   xmlns:sodipodi="http://sodipodi.sourceforge.net/DTD/sodipodi-0.dtd"
   xmlns:inkscape="http://www.inkscape.org/namespaces/inkscape"
   version="1.1"
   id="Calque_1"
   x="0px"
   y="0px"
   viewBox="-35.5 26 78.5 78.599998"
   enable-background="new -35.5 26 150 150"
   xml:space="preserve"
   inkscape:version="0.91 r13725"
   sodipodi:docname="options.svg"
   width="78.5"
   height="78.599998"><metadata
     id="metadata21"><rdf:RDF><cc:Work
         rdf:about=""><dc:format>image/svg+xml</dc:format><dc:type
           rdf:resource="http://purl.org/dc/dcmitype/StillImage" /><dc:title></dc:title></cc:Work></rdf:RDF></metadata><defs
     id="defs19" /><sodipodi:namedview
     pagecolor="#ffffff"
     bordercolor="#666666"
     borderopacity="1"
     objecttolerance="10"
     gridtolerance="10"
     guidetolerance="10"
     inkscape:pageopacity="0"
     inkscape:pageshadow="2"
     inkscape:window-width="1440"
     inkscape:window-height="2473"
     id="namedview17"
     showgrid="false"
     inkscape:zoom="4.4500587"
     inkscape:cx="54.669708"
     inkscape:cy="26.187084"
     inkscape:window-x="0"
     inkscape:window-y="24"
     inkscape:window-maximized="1"
     inkscape:current-layer="Calque_1"
     fit-margin-top="0"
     fit-margin-left="0"
     fit-margin-right="0"
     fit-margin-bottom="0" /><g
     id="g3"
     transform="translate(-35.7,-35.7)"><defs
       id="defs5"><rect
         id="SVGID_1_"
         x="-745.5"
         y="-514"
         width="1400"
         height="1060" /></defs><clipPath
       id="SVGID_2_"><use
         xlink:href="#SVGID_1_"
         overflow="visible"
         id="use9"
         style="overflow:visible"
         x="0"
         y="0"
         width="100%"
         height="100%" /></clipPath></g><g
     sketch:type="MSPage"
     id="g11"
     style="fill:#ffffff"
     transform="translate(-35.7,-35.7)"><g
       sketch:type="MSArtboardGroup"
       id="g13"
       style="fill:#ffffff"><path
         sketch:type="MSShapeGroup"
         d="m 63.7,69.6 c -0.9,-0.7 -2.3,-0.7 -3.2,0.1 L 56.8,73 c -0.8,0.8 -2.4,0.9 -3.4,0.5 L 49,71.7 C 48,71.4 47,70.1 47,69 l -0.2,-5 c -0.1,-1.1 -1,-2.2 -2.2,-2.3 l -10.1,0 c -1.1,0.1 -2,1.1 -2.2,2.3 l -0.2,5 c -0.1,1.1 -1,2.4 -2,2.7 l -4.4,1.8 c -1,0.5 -2.5,0.3 -3.4,-0.5 l -3.7,-3.3 c -0.8,-0.8 -2.3,-0.8 -3.2,-0.1 0,0 -2.2,1.6 -3.9,3.3 -1.7,1.7 -3.3,3.9 -3.3,3.9 -0.8,0.9 -0.8,2.2 0,3.2 l 3.3,3.7 c 0.8,0.8 0.9,2.4 0.5,3.4 l -1.8,4.4 c -0.3,1 -1.6,2 -2.7,2 l -5,0.2 c -1.1,0.1 -2.2,1 -2.3,2.2 l 0,10.1 c 0.1,1.1 1.1,2 2.3,2.2 l 5,0.2 c 1.1,0.1 2.4,1 2.7,2 l 1.8,4.4 c 0.5,1 0.3,2.5 -0.5,3.4 L 8.2,122 c -0.8,0.8 -0.8,2.3 -0.1,3.2 0,0 1.6,2.2 3.3,3.9 1.7,1.7 3.9,3.3 3.9,3.3 0.9,0.7 2.3,0.7 3.2,-0.1 l 3.7,-3.3 c 0.8,-0.8 2.4,-0.9 3.4,-0.5 l 4.4,1.8 c 1,0.3 2,1.6 2,2.7 l 0.2,5 c 0.1,1.1 1,2.2 2.2,2.3 l 10.1,0 c 1.1,-0.1 2,-1.1 2.2,-2.3 l 0.2,-5 c 0.1,-1.1 1,-2.4 2,-2.7 l 4.4,-1.8 c 1,-0.5 2.5,-0.3 3.4,0.5 l 3.7,3.3 c 0.8,0.8 2.3,0.8 3.2,0.1 0,0 2.2,-1.6 3.9,-3.3 1.7,-1.7 3.3,-3.9 3.3,-3.9 0.7,-0.9 0.7,-2.3 -0.1,-3.2 l -3.3,-3.7 c -0.8,-0.8 -0.9,-2.4 -0.5,-3.4 l 1.8,-4.4 c 0.3,-1 1.6,-2 2.7,-2 l 5,-0.2 c 1.1,-0.1 2.2,-1 2.3,-2.2 l 0,-10.1 c -0.1,-1.1 -1.1,-2 -2.3,-2.2 l -5,-0.2 c -1.1,-0.1 -2.4,-1 -2.7,-2 L 67,87.1 c -0.5,-1 -0.3,-2.5 0.5,-3.4 L 70.8,80 c 0.8,-0.8 0.8,-2.3 0.1,-3.2 0,0 -1.6,-2.2 -3.3,-3.9 -1.7,-1.7 -3.9,-3.3 -3.9,-3.3 l 0,0 z m -12.5,43 c -6.5,6.5 -16.9,6.5 -23.4,0 -6.5,-6.5 -6.5,-16.9 0,-23.4 6.5,-6.5 16.9,-6.5 23.4,0 6.5,6.5 6.5,17 0,23.4 l 0,0 z"
         id="path15"
         style="fill:#ffffff"
         inkscape:connector-curvature="0" /></g></g></svg>